<?xml version="1.0" encoding="UTF-8"?>
<svg id="Layer_2" data-name="Layer 2" xmlns="http://www.w3.org/2000/svg" viewBox="0 0 346 346">
  <defs>
    <style>
      .cls-1 {
        fill: #ff4438;
      }

      .cls-2 {
        fill: #fff;
      }
    </style>
  </defs>
  <g id="Layer_1-2" data-name="Layer 1">
    <g>
      <rect class="cls-1" x="0" width="346" height="346" rx="112.67" ry="112.67"/>
      <path class="cls-2" d="m303.34,52.45l-2.03,6.88c-3.85,13.11-11.09,23.59-21.53,31.16-10.41,7.54-22.62,11.37-36.3,11.37-8.67,0-17.08-1.62-24.99-4.83-5.97-2.42-12.05-4.77-18.12-7-2.15,10.45-4.46,22.15-6.88,34.84-2.77,14.55-6.09,29.74-9.85,45.13-3.78,15.46-8.38,30.57-13.67,44.91-5.34,14.5-11.84,27.76-19.33,39.41-7.63,11.87-16.77,21.44-27.18,28.45-10.63,7.15-23.17,10.78-37.28,10.78-9.69,0-17.89-2.05-24.36-6.1-6.42-4.01-11.27-8.96-14.41-14.71-3.14-5.75-4.74-11.36-4.74-16.7,0-4.6,1-8.96,2.98-12.96,2.1-4.27,5.85-7.72,11.15-10.26,5.08-2.43,11.96-3.61,21.04-3.61h4.83l-.9,4.75c-.65,3.42-1.07,6.77-1.25,9.94-.19,3.25-.29,6.3-.29,9.06,0,5.64.94,10.21,2.8,13.59,1.5,2.73,4.54,4.26,9.3,4.66,4.2-.06,8.2-2.44,12.21-7.27,4.56-5.48,8.91-13,12.94-22.36,4.12-9.58,8-20.41,11.55-32.2,3.57-11.88,6.87-24.19,9.81-36.57,2.96-12.45,5.69-24.46,8.11-35.7,2.4-11.14,4.59-21.13,6.52-29.67,1.96-8.71,3.62-14.79,5.06-18.61l.28-.73.54-.58c2.2-2.36,4.67-4.41,7.38-6.13-.46-.01-.92-.02-1.39-.02-10.06,0-19.81,1.51-28.98,4.49-9.19,2.99-17.43,7-24.48,11.92-6.99,4.87-12.56,10.27-16.56,16.04-3.8,5.48-5.72,10.99-5.72,16.38,0,4.52,1.53,8.76,4.68,12.96,3.22,4.3,8.72,8.15,16.32,11.46l2.41,1.05v2.62c0,2.98-.23,6.35-.69,10.01-.45,3.62-1.05,6.99-1.76,10.01-.85,3.6-1.63,5.68-2.59,6.97l-1.86,2.47-2.86-1.17c-16.76-6.87-29.15-15.25-36.81-24.93-7.81-9.84-11.77-20.13-11.77-30.57,0-9.72,3-19.29,8.91-28.44,5.77-8.93,13.88-17.09,24.12-24.23,10.15-7.08,22.24-12.81,35.94-17,13.68-4.2,28.7-6.33,44.63-6.33,9.07,0,18.77.94,28.82,2.78,9.84,1.8,19.77,3.61,29.76,5.41,9.71,1.75,19.25,2.64,28.34,2.64,8.26,0,15.81-1.5,22.43-4.48,7.31-3.28,13.64-5.66,18.8-7.08l6.92-1.9Z"/>
    </g>
  </g>
</svg>