<?xml version="1.0" encoding="UTF-8"?>
<svg id="Layer_2" data-name="Layer 2" xmlns="http://www.w3.org/2000/svg" viewBox="0 0 746.58 299.94">
  <defs>
    <style>
      .cls-1 {
        fill: #ff4438;
      }
    </style>
  </defs>
  <g id="Layer_1-2" data-name="Layer 1">
    <path class="cls-1" d="m537.86,105.34c-.19.01-1.22.06-3.1.14-2.3.1-5.01.35-8.05.75-3.25.42-6.24,1.21-8.88,2.35-4.43,1.89-5.67,4.77-5.93,6.88-.97,6.55-1.54,12.86-1.69,18.76-.15,5.78-.22,10.09-.22,12.82,0,7.49.29,14.83.87,21.94-1.23,1.13-2.43,2.2-3.6,3.24-4.23,3.74-8.73,7.62-13.39,11.52-2.97,2.48-6.29,5.26-9.95,8.32,1.39-5.13,3.06-11.31,5.01-18.56,2.18-8.11,4.52-16.67,6.94-25.45,2.36-8.54,4.6-16.46,6.65-23.56,2-6.91,3.5-11.8,4.44-14.52l1.6-4.64h-14.76c-3.49,0-6.75.18-9.68.53-3.66.44-6.87,2.19-9.57,5.19-2.53,2.82-4.59,7.45-6.28,14.12l-15.66,59.76c-.39.57-1.72,2.12-6.03,5.24-3.85,2.8-8.29,5.4-13.19,7.7-4.62,2.18-8.74,3.29-12.26,3.29-1.86,0-3.37-.51-4.61-1.56-1.31-1.11-1.58-3.69-1.58-5.65,0-1.59.39-5.08,2.28-12.7,1.58-6.38,3.57-13.58,5.9-21.41,2.34-7.9,4.72-15.7,7.07-23.18,2.36-7.53,4.34-13.8,5.93-18.81,2.56-8.04,2.56-8.35,2.56-9.02v-3.5h-8.57c-1.35,0-3.79.04-7.69.14-3.84.1-7.53.41-10.98.91-1.81.26-7.21,1.05-8.16,5.14-4.69,13.4-9.06,26.23-12.97,38.12-2.64,8.01-4.95,15.52-6.9,22.45,0,0,0,.01-.01.01-4.28,4.16-8.83,8.47-13.57,12.83-5.42,4.99-10.35,9.31-14.67,12.81-3.22,2.62-5,3.76-5.9,4.24-.03-.21-.05-.43-.05-.65,0-2.22.66-6.62,3.76-14.92,2.61-6.98,5.84-14.61,9.6-22.69,3.79-8.17,7.49-15.97,10.98-23.19,3.51-7.27,6.18-13.07,7.93-17.24.4-.86.6-1.9.6-3.17s-.56-5.53-7.7-5.53c-2.66,0-5.76.35-9.5,1.08-3.24.63-5.89.95-7.87.95-4.46,0-8.62-.41-12.36-1.22-1.71-.38-3.26-.89-4.64-1.53,1.35-1.53,2.55-3.39,3.59-5.57,1.9-4.03,2.86-7.75,2.86-11.05,0-7-3.74-11.18-10.01-11.18-9.85,0-17.68,3.06-23.27,9.09-5.52,5.95-8.31,12.64-8.31,19.89,0,2.52,1.63,5.54,5.45,10.07,2.95,3.5,8.12,6.39,15.73,8.75l-25.39,28.65-.03.03c-2.35,2.13-4.79,4.43-7.3,6.89-4.09,3.99-8,7.88-11.63,11.55-3.64,3.69-6.75,6.75-9.25,9.11-.75.7-1.34,1.23-1.82,1.63,0-.03-.01-.07-.02-.11.04-4.52.94-9.94,2.69-16.12,1.85-6.55,4.02-13.35,6.45-20.19,2.46-6.96,4.66-13.47,6.54-19.36,2.02-6.29,2.99-11.18,2.99-14.96,0-17.78-11.08-20.44-17.68-20.44-8.2,0-16.58,2.39-24.89,7.12-8.1,4.59-15.73,10.73-22.7,18.25-1.82,1.97-3.57,3.98-5.25,6.04l31.67-114.56c1.84-3.53,3.36-7.32,4.55-11.38l1.77-6.02-6.06,1.66c-5.07,1.4-11.31,3.75-18.53,6.99-6.6,2.96-14.13,4.47-22.37,4.47-9.03,0-18.48-.89-28.12-2.63-9.89-1.78-19.7-3.56-29.45-5.35-9.91-1.82-19.47-2.74-28.42-2.74-15.72,0-30.53,2.1-44.02,6.24-13.51,4.14-25.43,9.78-35.43,16.76-10.08,7.03-18.06,15.05-23.74,23.84-5.8,8.98-8.74,18.36-8.74,27.89,0,10.22,3.89,20.3,11.55,29.96,7.53,9.51,19.72,17.76,36.23,24.52l2.5,1.02,1.62-2.16c.92-1.22,1.66-3.23,2.49-6.72.7-2.97,1.29-6.29,1.73-9.86.45-3.59.68-6.91.68-9.84v-2.29l-2.1-.92c-7.6-3.31-13.1-7.17-16.33-11.48-3.18-4.25-4.73-8.53-4.73-13.1,0-5.43,1.93-10.96,5.75-16.47,3.98-5.75,9.53-11.13,16.49-15.98,7.02-4.89,15.2-8.88,24.34-11.85,9.11-2.96,18.81-4.46,28.81-4.46.98,0,1.96.02,2.92.07-3.16,1.82-6.01,4.1-8.52,6.78l-.47.5-.24.65c-1.42,3.74-3.05,9.75-4.99,18.35-1.91,8.48-4.08,18.36-6.45,29.34-2.4,11.14-5.1,23.03-8.02,35.32-2.91,12.27-6.18,24.45-9.71,36.21-3.52,11.69-7.37,22.43-11.45,31.91-4,9.3-8.33,16.78-12.86,22.23-4.08,4.9-8.15,7.3-12.45,7.35-4.89-.4-8.03-1.99-9.59-4.84-1.87-3.42-2.82-8.01-2.82-13.66,0-2.75.09-5.77.28-8.99.18-3.16.6-6.5,1.25-9.9l.78-4.15h-4.22c-8.91,0-15.66,1.15-20.62,3.53-5.15,2.46-8.79,5.8-10.82,9.93-1.92,3.9-2.9,8.14-2.9,12.62,0,5.2,1.56,10.69,4.63,16.3,3.07,5.62,7.82,10.46,14.1,14.39,6.33,3.95,14.36,5.96,23.86,5.96,13.87,0,26.19-3.56,36.62-10.59,10.25-6.89,19.25-16.32,26.76-28,7.39-11.51,13.81-24.59,19.09-38.9,5.23-14.19,9.77-29.12,13.5-44.39,3.72-15.21,7-30.22,9.74-44.62,2.44-12.77,4.76-24.53,6.91-34.99,6.18,2.26,12.37,4.65,18.45,7.11,7.76,3.15,16.02,4.74,24.54,4.74,2.28,0,4.52-.11,6.72-.33-.27.98-.55,1.98-.83,3-3.04,11.14-5.87,21.62-8.4,31.15-2.51,9.46-5.31,19.95-8.39,31.48-3.08,11.49-6.22,23.33-9.34,35.19-3.14,11.92-6.07,23.3-8.7,33.84-2.64,10.55-4.88,19.74-6.67,27.34-1.83,7.74-2.91,12.89-3.32,15.72l-.57,4h27.88l.97-.81c3.86-3.19,7-8.16,9.32-14.78,2.15-6.1,4.47-14.02,6.89-23.51,1.67-6.4,4.17-13,7.43-19.6,3.26-6.62,7.04-12.79,11.23-18.33,4.13-5.45,8.47-9.89,12.91-13.2,4.09-3.04,8.01-4.59,11.66-4.59s4.75,1.2,4.75,4.75c0,5.71-.75,12.22-2.24,19.33-1.52,7.27-3.33,14.56-5.37,21.69-2.07,7.22-3.97,13.74-5.64,19.36-1.76,5.95-2.77,10.22-3.09,13.06-.09.85-.21,1.82-.35,2.9-.16,1.26-.25,2.41-.25,3.42,0,3.39.78,6.52,2.32,9.3,1.32,2.37,4.19,5.21,10.45,5.21,4.17,0,9.1-2.12,15.08-6.46,5.42-3.94,11.18-8.9,17.12-14.74,5.85-5.76,11.52-11.65,16.86-17.51,5.44-6,9.76-10.82,13.21-14.74l.87-.99v-.32c2.42-2.67,4.57-4.98,6.41-6.91,3.03-3.17,5.88-6.06,8.46-8.6,1.86-1.82,3.85-3.8,5.95-5.92-2.27,5.25-4.64,10.87-7.07,16.78-3.15,7.65-5.88,14.86-8.11,21.41-2.37,6.94-3.52,12.02-3.52,15.53,0,4.95,1.11,9.78,3.31,14.33,2.57,5.32,7.04,8.14,12.93,8.14,4.27,0,9.34-1.55,15.5-4.74,5.75-2.97,12.03-7.03,18.67-12.04,4.6-3.48,9.24-7.28,13.86-11.38v.34c0,6.57,1.33,12.7,3.96,18.22,2.08,4.38,6.63,9.6,16.48,9.6,6.47,0,13.33-1.7,20.39-5.05,6.79-3.22,13.65-7.43,20.37-12.53,3.64-2.75,7.16-5.59,10.52-8.5l-2.3,11.15-42.23,26.8c-6.54,3.68-12.15,7.65-16.65,11.8-5.07,4.68-7.64,10.29-7.64,16.69,0,5.56,1.74,10.42,5.18,14.44,3.23,3.76,7.23,6.7,11.9,8.74,4.62,2.02,9.26,3.05,13.78,3.05,8.61,0,17.69-2.83,26.98-8.39,9.2-5.51,17.62-14.06,25.02-25.41,7.3-11.19,12.55-25.56,15.63-42.72,7.62-6.85,15.54-13.67,23.55-20.26,4.1-3.38,8.1-6.89,11.97-10.51,2.09,10.82,5.04,19.89,8.75,27.02,4.74,9.07,10.92,13.68,18.38,13.68,9.02,0,16.47-1.5,22.17-4.45,5.67-2.94,10.61-7.26,14.68-12.84,2.84-3.91,5.83-8.49,8.9-13.69.72,1.22,1.5,2.42,2.32,3.62,2.75,3.99,5.63,5.93,8.82,5.93,3.89,0,8.15-1.74,13-5.31,3.14-2.3,6.45-5.09,9.91-8.32,1.47,8.88,5,16.46,10.53,22.61,7.61,8.45,17.89,12.74,30.54,12.74,14.87,0,29.41-5.02,43.23-14.92,13.44-9.63,27.06-22.51,40.5-38.28l.84-.99v-25.29l-5.89,5.53c-4.66,4.37-9.91,9.51-15.6,15.3-5.63,5.73-11.49,11.42-17.4,16.9-5.81,5.39-11.5,9.92-16.9,13.46-5,3.27-9.46,4.93-13.29,4.93-5.36,0-9.54-1.31-12.43-3.89-3.09-2.75-5.19-6.25-6.41-10.7-1.31-4.74-1.98-9.9-1.98-15.35,0-6.02,1.2-12.24,3.57-18.55,3.13,3.58,6.61,6.34,10.42,8.22,5.33,2.65,10.36,3.98,14.94,3.98,7.91,0,15.5-2.02,22.57-6.02,7-3.97,12.83-9.35,17.32-16,4.57-6.78,6.89-14.34,6.89-22.44,0-10.98-3.97-18.73-11.8-23.04-7.15-3.94-15.85-5.94-25.86-5.94-11.07,0-21.33,2.56-30.49,7.6-9.06,4.98-17,11.76-23.58,20.16-6.54,8.34-11.65,17.81-15.18,28.17-1.66,4.87-2.94,9.81-3.82,14.8-4.15,4.14-7.83,7.8-11.04,10.99-4.47,4.43-7.46,6.72-9.4,7.9l-1.19-3.29c.66-1.82,1.67-4.76,3.06-8.91,1.74-5.23,3.61-11.45,5.55-18.49,1.94-7.04,3.67-14.31,5.13-21.59,1.48-7.43,2.24-14.09,2.24-19.8,0-4.77-.64-8.56-1.96-11.6-1.66-3.83-4.83-5.94-8.93-5.94-5.61,0-10.33,3.01-14.04,8.96-3.22,5.16-5.85,11.73-7.81,19.53-1.91,7.6-3.35,15.62-4.28,23.83-.93,8.19-1.4,15.72-1.4,22.4,0,1.22,0,2.42.11,3.5-.92,1.53-2.12,3.56-3.55,6.05-1.81,3.14-3.8,6.4-5.92,9.7-2.08,3.24-4.1,6.05-5.98,8.35-1.4,1.71-2.22,2.19-2.48,2.32-.32-.14-1.68-.97-3.67-5.21-2.12-4.52-3.91-10.68-5.29-18.31-1.41-7.73-2.12-16.26-2.12-25.36,0-5.29.27-11.03.79-17.07.52-6.1,1.12-11.89,1.79-17.24.66-5.28,1.28-9.5,1.85-12.53l.78-4.14h-15.8m156.92,15.25c3.41,0,6.03.72,7.8,2.13,1.49,1.19,2.31,4.17,2.31,8.41,0,6.06-1.77,11.45-5.42,16.48-3.38,4.67-7.24,6.95-11.78,6.95-3.61,0-7.32-1.11-11.05-3.29-3.37-1.97-6.48-4.65-9.26-7.98,1.04-2.3,2.59-5.03,4.63-8.14,2.52-3.84,5.82-7.32,9.82-10.35,3.76-2.83,7.99-4.21,12.95-4.21Zm-260.81,150.2c-4.54,8.19-10.52,12.17-18.29,12.17-4.33,0-7.21-1.43-7.21-8.37,0-3.6,1.31-6.47,4-8.79,3.31-2.85,6.75-5.37,10.3-7.51l20.11-12.72c-2,9.68-4.98,18.14-8.91,25.22Z"/>
  </g>
</svg>